<?xml version="1.0" standalone="no"?>
<!DOCTYPE svg PUBLIC "-//W3C//DTD SVG 20010904//EN"
 "http://www.w3.org/TR/2001/REC-SVG-20010904/DTD/svg10.dtd">
<svg version="1.0" xmlns="http://www.w3.org/2000/svg"
 width="256.000000pt" height="256.000000pt" viewBox="0 0 256.000000 256.000000"
 preserveAspectRatio="xMidYMid meet">
<metadata>
Created by potrace 1.12, written by Peter Selinger 2001-2015
</metadata>
<g transform="translate(0.000000,256.000000) scale(0.100000,-0.100000)"
fill="#000000" stroke="none">
<path d="M625 1761 c11 -10 79 -70 150 -132 72 -63 215 -188 318 -279 104 -91
195 -165 202 -165 7 0 98 74 202 165 103 91 246 216 318 279 71 62 139 122
150 132 19 19 7 19 -670 19 -677 0 -689 0 -670 -19z"/>
<path d="M530 1305 l0 -429 28 26 c15 13 121 107 237 209 116 101 210 188 210
194 0 6 -97 96 -215 199 -118 104 -225 198 -237 209 l-23 20 0 -428z"/>
<path d="M1820 1523 c-129 -114 -235 -212 -235 -218 0 -6 106 -104 235 -217
l235 -206 3 214 c1 119 1 309 0 424 l-3 209 -235 -206z"/>
<path d="M845 1042 l-237 -207 340 -3 c187 -1 496 -1 687 0 l346 3 -236 207
-236 208 -102 -90 c-56 -49 -105 -91 -109 -92 -3 -2 -54 39 -112 89 l-105 93
-236 -208z"/>
</g>
</svg>
