<?xml version="1.0" standalone="no"?>
<!DOCTYPE svg PUBLIC "-//W3C//DTD SVG 20010904//EN"
 "http://www.w3.org/TR/2001/REC-SVG-20010904/DTD/svg10.dtd">
<svg version="1.0" xmlns="http://www.w3.org/2000/svg"
 width="256.000000pt" height="256.000000pt" viewBox="0 0 256.000000 256.000000"
 preserveAspectRatio="xMidYMid meet">
<metadata>
Created by potrace 1.12, written by Peter Selinger 2001-2015
</metadata>
<g transform="translate(0.000000,256.000000) scale(0.100000,-0.100000)"
fill="#000000" stroke="none">
<path d="M912 1717 c-210 -155 -384 -289 -387 -298 -9 -26 5 -49 31 -49 15 0
149 93 376 262 194 144 358 261 363 261 6 0 171 -118 368 -261 358 -263 398
-286 412 -243 9 31 -2 44 -95 105 l-90 59 0 163 0 164 -105 0 -105 0 0 -80 c0
-44 -3 -80 -6 -80 -4 0 -301 218 -370 271 -6 5 -160 -103 -392 -274z"/>
<path d="M1003 1569 l-293 -219 0 -355 0 -355 310 0 310 0 0 260 0 260 165 0
165 0 0 -260 0 -261 113 3 112 3 2 345 c2 190 0 350 -5 356 -5 8 -485 369
-577 434 -5 4 -142 -91 -302 -211z m157 -544 l0 -135 -140 0 -140 0 0 135 0
135 140 0 140 0 0 -135z"/>
</g>
</svg>
