<?xml version="1.0" standalone="no"?>
<!DOCTYPE svg PUBLIC "-//W3C//DTD SVG 20010904//EN"
 "http://www.w3.org/TR/2001/REC-SVG-20010904/DTD/svg10.dtd">
<svg version="1.0" xmlns="http://www.w3.org/2000/svg"
 width="256.000000pt" height="256.000000pt" viewBox="0 0 256.000000 256.000000"
 preserveAspectRatio="xMidYMid meet">
<metadata>
Created by potrace 1.12, written by Peter Selinger 2001-2015
</metadata>
<g transform="translate(0.000000,256.000000) scale(0.100000,-0.100000)"
fill="#000000" stroke="none">
<path d="M1061 1898 c1 -41 15 -61 50 -72 l34 -11 2 -165 2 -165 -53 -95 -53
-95 76 -5 c62 -4 76 -8 79 -22 3 -16 -6 -18 -87 -18 l-90 0 -25 -42 -26 -43
75 -3 c58 -2 75 -6 75 -17 0 -12 -16 -15 -78 -15 -63 0 -82 -4 -94 -17 -16
-18 -48 -77 -48 -88 0 -3 34 -5 75 -5 59 0 75 -3 75 -15 0 -11 -19 -15 -87
-17 l-87 -3 -23 -40 c-12 -22 -23 -43 -23 -47 0 -5 34 -8 75 -8 68 0 75 -2 75
-20 0 -19 -7 -20 -90 -20 l-90 0 -20 -41 c-30 -57 -24 -115 13 -143 28 -20 40
-21 465 -24 240 -2 451 0 468 3 47 8 84 47 84 88 0 25 -51 127 -195 390 l-195
357 0 166 0 166 40 15 c37 15 40 19 40 55 l0 38 -220 0 -220 0 1 -22z"/>
</g>
</svg>
