<svg width="1680" height="882" xmlns="http://www.w3.org/2000/svg"><g><path d="M-80,-77L-90,810L-73,416Z" fill="#c68077" stroke="#c68077" fill-opacity="1" stroke-opacity="1"/><path d="M-80,-77L-73,416L-63,230Z" fill="#c8473e" stroke="#c8473e" fill-opacity="1" stroke-opacity="1"/><path d="M-80,-77L-63,230L-57,90Z" fill="#c61a2a" stroke="#c61a2a" fill-opacity="1" stroke-opacity="1"/><path d="M-80,-77L-57,90L37,26Z" fill="#b5042a" stroke="#b5042a" fill-opacity="1" stroke-opacity="1"/><path d="M-80,-77L37,26L101,-46Z" fill="#ae032a" stroke="#ae032a" fill-opacity="1" stroke-opacity="1"/><path d="M-80,-77L101,-46L193,-57Z" fill="#ac0a29" stroke="#ac0a29" fill-opacity="1" stroke-opacity="1"/><path d="M-80,-77L193,-57L350,-90Z" fill="#b4162a" stroke="#b4162a" fill-opacity="1" stroke-opacity="1"/><path d="M101,-46L37,26L209,25Z" fill="#c7112a" stroke="#c7112a" fill-opacity="1" stroke-opacity="1"/><path d="M101,-46L209,25L193,-57Z" fill="#c6182a" stroke="#c6182a" fill-opacity="1" stroke-opacity="1"/><path d="M193,-57L209,25L350,-90Z" fill="#c82731" stroke="#c82731" fill-opacity="1" stroke-opacity="1"/><path d="M350,-90L209,25L345,83Z" fill="#dc3235" stroke="#dc3235" fill-opacity="1" stroke-opacity="1"/><path d="M350,-90L345,83L439,-74Z" fill="#d53f3c" stroke="#d53f3c" fill-opacity="1" stroke-opacity="1"/><path d="M350,-90L439,-74L682,-77Z" fill="#c65546" stroke="#c65546" fill-opacity="1" stroke-opacity="1"/><path d="M350,-90L682,-77L985,-79Z" fill="#c7705e" stroke="#c7705e" fill-opacity="1" stroke-opacity="1"/><path d="M350,-90L985,-79L1782,-78Z" fill="#986989" stroke="#986989" fill-opacity="1" stroke-opacity="1"/><path d="M439,-74L345,83L461,84Z" fill="#e9503f" stroke="#e9503f" fill-opacity="1" stroke-opacity="1"/><path d="M439,-74L461,84L559,-61Z" fill="#db5446" stroke="#db5446" fill-opacity="1" stroke-opacity="1"/><path d="M439,-74L559,-61L682,-77Z" fill="#ca604f" stroke="#ca604f" fill-opacity="1" stroke-opacity="1"/><path d="M559,-61L461,84L561,97Z" fill="#ee684a" stroke="#ee684a" fill-opacity="1" stroke-opacity="1"/><path d="M559,-61L561,97L682,-77Z" fill="#dd6655" stroke="#dd6655" fill-opacity="1" stroke-opacity="1"/><path d="M682,-77L561,97L727,101Z" fill="#ef7b5d" stroke="#ef7b5d" fill-opacity="1" stroke-opacity="1"/><path d="M682,-77L727,101L807,57Z" fill="#e57d73" stroke="#e57d73" fill-opacity="1" stroke-opacity="1"/><path d="M682,-77L807,57L840,-40Z" fill="#d2767f" stroke="#d2767f" fill-opacity="1" stroke-opacity="1"/><path d="M682,-77L840,-40L985,-79Z" fill="#be7a91" stroke="#be7a91" fill-opacity="1" stroke-opacity="1"/><path d="M840,-40L807,57L948,62Z" fill="#d78092" stroke="#d78092" fill-opacity="1" stroke-opacity="1"/><path d="M840,-40L948,62L985,-79Z" fill="#bf738f" stroke="#bf738f" fill-opacity="1" stroke-opacity="1"/><path d="M985,-79L948,62L1074,47Z" fill="#bd708c" stroke="#bd708c" fill-opacity="1" stroke-opacity="1"/><path d="M985,-79L1074,47L1117,-29Z" fill="#a96688" stroke="#a96688" fill-opacity="1" stroke-opacity="1"/><path d="M985,-79L1117,-29L1228,-51Z" fill="#965f83" stroke="#965f83" fill-opacity="1" stroke-opacity="1"/><path d="M985,-79L1228,-51L1524,-76Z" fill="#7d4b79" stroke="#7d4b79" fill-opacity="1" stroke-opacity="1"/><path d="M985,-79L1524,-76L1782,-78Z" fill="#672b68" stroke="#672b68" fill-opacity="1" stroke-opacity="1"/><path d="M1117,-29L1074,47L1258,102Z" fill="#ae6781" stroke="#ae6781" fill-opacity="1" stroke-opacity="1"/><path d="M1117,-29L1258,102L1228,-51Z" fill="#9c557d" stroke="#9c557d" fill-opacity="1" stroke-opacity="1"/><path d="M1228,-51L1258,102L1335,50Z" fill="#9a5177" stroke="#9a5177" fill-opacity="1" stroke-opacity="1"/><path d="M1228,-51L1335,50L1388,-54Z" fill="#833f73" stroke="#833f73" fill-opacity="1" stroke-opacity="1"/><path d="M1228,-51L1388,-54L1524,-76Z" fill="#6f346d" stroke="#6f346d" fill-opacity="1" stroke-opacity="1"/><path d="M1388,-54L1335,50L1474,28Z" fill="#84336c" stroke="#84336c" fill-opacity="1" stroke-opacity="1"/><path d="M1388,-54L1474,28L1524,-76Z" fill="#732566" stroke="#732566" fill-opacity="1" stroke-opacity="1"/><path d="M1524,-76L1474,28L1590,-36Z" fill="#711860" stroke="#711860" fill-opacity="1" stroke-opacity="1"/><path d="M1524,-76L1590,-36L1782,-78Z" fill="#5f0556" stroke="#5f0556" fill-opacity="1" stroke-opacity="1"/><path d="M1590,-36L1474,28L1597,81Z" fill="#811b5d" stroke="#811b5d" fill-opacity="1" stroke-opacity="1"/><path d="M1590,-36L1597,81L1791,93Z" fill="#810f54" stroke="#810f54" fill-opacity="1" stroke-opacity="1"/><path d="M1590,-36L1791,93L1782,-78Z" fill="#6c004e" stroke="#6c004e" fill-opacity="1" stroke-opacity="1"/><path d="M-57,90L-63,230L93,229Z" fill="#d1443d" stroke="#d1443d" fill-opacity="1" stroke-opacity="1"/><path d="M-57,90L93,229L37,26Z" fill="#d62b2f" stroke="#d62b2f" fill-opacity="1" stroke-opacity="1"/><path d="M37,26L93,229L209,25Z" fill="#e32f2c" stroke="#e32f2c" fill-opacity="1" stroke-opacity="1"/><path d="M209,25L93,229L196,210Z" fill="#eb5038" stroke="#eb5038" fill-opacity="1" stroke-opacity="1"/><path d="M209,25L196,210L345,83Z" fill="#f24b35" stroke="#f24b35" fill-opacity="1" stroke-opacity="1"/><path d="M345,83L196,210L340,222Z" fill="#f66e45" stroke="#f66e45" fill-opacity="1" stroke-opacity="1"/><path d="M345,83L340,222L470,202Z" fill="#fb7e4d" stroke="#fb7e4d" fill-opacity="1" stroke-opacity="1"/><path d="M345,83L470,202L461,84Z" fill="#fc7347" stroke="#fc7347" fill-opacity="1" stroke-opacity="1"/><path d="M461,84L470,202L561,97Z" fill="#fe834f" stroke="#fe834f" fill-opacity="1" stroke-opacity="1"/><path d="M561,97L470,202L581,203Z" fill="#fe995c" stroke="#fe995c" fill-opacity="1" stroke-opacity="1"/><path d="M561,97L581,203L727,101Z" fill="#ff9861" stroke="#ff9861" fill-opacity="1" stroke-opacity="1"/><path d="M727,101L581,203L709,235Z" fill="#ffb371" stroke="#ffb371" fill-opacity="1" stroke-opacity="1"/><path d="M727,101L709,235L835,177Z" fill="#f7b48a" stroke="#f7b48a" fill-opacity="1" stroke-opacity="1"/><path d="M727,101L835,177L807,57Z" fill="#f49d88" stroke="#f49d88" fill-opacity="1" stroke-opacity="1"/><path d="M807,57L835,177L948,62Z" fill="#ec9994" stroke="#ec9994" fill-opacity="1" stroke-opacity="1"/><path d="M948,62L835,177L971,181Z" fill="#e3a69a" stroke="#e3a69a" fill-opacity="1" stroke-opacity="1"/><path d="M948,62L971,181L1074,47Z" fill="#d78e8e" stroke="#d78e8e" fill-opacity="1" stroke-opacity="1"/><path d="M1074,47L971,181L1090,229Z" fill="#cf9f96" stroke="#cf9f96" fill-opacity="1" stroke-opacity="1"/><path d="M1074,47L1090,229L1258,102Z" fill="#c0878a" stroke="#c0878a" fill-opacity="1" stroke-opacity="1"/><path d="M1258,102L1090,229L1256,195Z" fill="#b6938f" stroke="#b6938f" fill-opacity="1" stroke-opacity="1"/><path d="M1258,102L1256,195L1375,178Z" fill="#a97c83" stroke="#a97c83" fill-opacity="1" stroke-opacity="1"/><path d="M1258,102L1375,178L1335,50Z" fill="#a56477" stroke="#a56477" fill-opacity="1" stroke-opacity="1"/><path d="M1335,50L1375,178L1474,28Z" fill="#9e4d6d" stroke="#9e4d6d" fill-opacity="1" stroke-opacity="1"/><path d="M1474,28L1375,178L1484,173Z" fill="#9c546f" stroke="#9c546f" fill-opacity="1" stroke-opacity="1"/><path d="M1474,28L1484,173L1597,81Z" fill="#983962" stroke="#983962" fill-opacity="1" stroke-opacity="1"/><path d="M1597,81L1484,173L1609,217Z" fill="#954b6b" stroke="#954b6b" fill-opacity="1" stroke-opacity="1"/><path d="M1597,81L1609,217L1736,235Z" fill="#904367" stroke="#904367" fill-opacity="1" stroke-opacity="1"/><path d="M1597,81L1736,235L1791,93Z" fill="#8d3159" stroke="#8d3159" fill-opacity="1" stroke-opacity="1"/><path d="M1791,93L1736,235L1780,357Z" fill="#895866" stroke="#895866" fill-opacity="1" stroke-opacity="1"/><path d="M1791,93L1780,357L1793,952Z" fill="#8080b1" stroke="#8080b1" fill-opacity="1" stroke-opacity="1"/><path d="M-63,230L-73,416L-61,339Z" fill="#c87961" stroke="#c87961" fill-opacity="1" stroke-opacity="1"/><path d="M-63,230L-61,339L70,354Z" fill="#d0735b" stroke="#d0735b" fill-opacity="1" stroke-opacity="1"/><path d="M-63,230L70,354L93,229Z" fill="#d76e4f" stroke="#d76e4f" fill-opacity="1" stroke-opacity="1"/><path d="M93,229L70,354L199,320Z" fill="#e48359" stroke="#e48359" fill-opacity="1" stroke-opacity="1"/><path d="M93,229L199,320L196,210Z" fill="#ea7a4b" stroke="#ea7a4b" fill-opacity="1" stroke-opacity="1"/><path d="M196,210L199,320L324,319Z" fill="#f19259" stroke="#f19259" fill-opacity="1" stroke-opacity="1"/><path d="M196,210L324,319L340,222Z" fill="#f58f54" stroke="#f58f54" fill-opacity="1" stroke-opacity="1"/><path d="M340,222L324,319L464,311Z" fill="#fbab65" stroke="#fbab65" fill-opacity="1" stroke-opacity="1"/><path d="M340,222L464,311L470,202Z" fill="#fca75f" stroke="#fca75f" fill-opacity="1" stroke-opacity="1"/><path d="M470,202L464,311L581,203Z" fill="#feb365" stroke="#feb365" fill-opacity="1" stroke-opacity="1"/><path d="M581,203L464,311L592,324Z" fill="#fec975" stroke="#fec975" fill-opacity="1" stroke-opacity="1"/><path d="M581,203L592,324L709,235Z" fill="#ffcd7a" stroke="#ffcd7a" fill-opacity="1" stroke-opacity="1"/><path d="M709,235L592,324L719,300Z" fill="#ffde89" stroke="#ffde89" fill-opacity="1" stroke-opacity="1"/><path d="M709,235L719,300L816,339Z" fill="#f8e4a2" stroke="#f8e4a2" fill-opacity="1" stroke-opacity="1"/><path d="M709,235L816,339L835,177Z" fill="#f5d8a2" stroke="#f5d8a2" fill-opacity="1" stroke-opacity="1"/><path d="M835,177L816,339L991,315Z" fill="#e9e2b8" stroke="#e9e2b8" fill-opacity="1" stroke-opacity="1"/><path d="M835,177L991,315L971,181Z" fill="#e1c9aa" stroke="#e1c9aa" fill-opacity="1" stroke-opacity="1"/><path d="M971,181L991,315L1090,229Z" fill="#d4c9a9" stroke="#d4c9a9" fill-opacity="1" stroke-opacity="1"/><path d="M1090,229L991,315L1142,303Z" fill="#cad1af" stroke="#cad1af" fill-opacity="1" stroke-opacity="1"/><path d="M1090,229L1142,303L1256,195Z" fill="#bcb69f" stroke="#bcb69f" fill-opacity="1" stroke-opacity="1"/><path d="M1256,195L1142,303L1222,311Z" fill="#b5bba1" stroke="#b5bba1" fill-opacity="1" stroke-opacity="1"/><path d="M1256,195L1222,311L1386,351Z" fill="#aab1a0" stroke="#aab1a0" fill-opacity="1" stroke-opacity="1"/><path d="M1256,195L1386,351L1375,178Z" fill="#a39990" stroke="#a39990" fill-opacity="1" stroke-opacity="1"/><path d="M1375,178L1386,351L1500,294Z" fill="#9e9690" stroke="#9e9690" fill-opacity="1" stroke-opacity="1"/><path d="M1375,178L1500,294L1484,173Z" fill="#9c7880" stroke="#9c7880" fill-opacity="1" stroke-opacity="1"/><path d="M1484,173L1500,294L1609,217Z" fill="#976f7b" stroke="#976f7b" fill-opacity="1" stroke-opacity="1"/><path d="M1609,217L1500,294L1607,324Z" fill="#957b83" stroke="#957b83" fill-opacity="1" stroke-opacity="1"/><path d="M1609,217L1607,324L1736,235Z" fill="#906676" stroke="#906676" fill-opacity="1" stroke-opacity="1"/><path d="M1736,235L1607,324L1780,357Z" fill="#8d737f" stroke="#8d737f" fill-opacity="1" stroke-opacity="1"/><path d="M-61,339L-73,416L38,442Z" fill="#cd807f" stroke="#cd807f" fill-opacity="1" stroke-opacity="1"/><path d="M-61,339L38,442L70,354Z" fill="#d58275" stroke="#d58275" fill-opacity="1" stroke-opacity="1"/><path d="M70,354L38,442L170,427Z" fill="#e08d84" stroke="#e08d84" fill-opacity="1" stroke-opacity="1"/><path d="M70,354L170,427L199,320Z" fill="#e89570" stroke="#e89570" fill-opacity="1" stroke-opacity="1"/><path d="M199,320L170,427L324,319Z" fill="#f1a370" stroke="#f1a370" fill-opacity="1" stroke-opacity="1"/><path d="M324,319L170,427L359,473Z" fill="#f5ad8c" stroke="#f5ad8c" fill-opacity="1" stroke-opacity="1"/><path d="M324,319L359,473L422,462Z" fill="#fbbd99" stroke="#fbbd99" fill-opacity="1" stroke-opacity="1"/><path d="M324,319L422,462L464,311Z" fill="#fcc383" stroke="#fcc383" fill-opacity="1" stroke-opacity="1"/><path d="M464,311L422,462L592,443Z" fill="#fed59e" stroke="#fed59e" fill-opacity="1" stroke-opacity="1"/><path d="M464,311L592,443L592,324Z" fill="#fedd90" stroke="#fedd90" fill-opacity="1" stroke-opacity="1"/><path d="M592,324L592,443L719,300Z" fill="#ffea9a" stroke="#ffea9a" fill-opacity="1" stroke-opacity="1"/><path d="M719,300L592,443L749,481Z" fill="#fdf1bd" stroke="#fdf1bd" fill-opacity="1" stroke-opacity="1"/><path d="M719,300L749,481L816,339Z" fill="#f7f5c3" stroke="#f7f5c3" fill-opacity="1" stroke-opacity="1"/><path d="M816,339L749,481L829,435Z" fill="#f4f7e4" stroke="#f4f7e4" fill-opacity="1" stroke-opacity="1"/><path d="M816,339L829,435L943,441Z" fill="#ecf7ea" stroke="#ecf7ea" fill-opacity="1" stroke-opacity="1"/><path d="M816,339L943,441L991,315Z" fill="#e4f3d4" stroke="#e4f3d4" fill-opacity="1" stroke-opacity="1"/><path d="M991,315L943,441L1129,467Z" fill="#d3ebe4" stroke="#d3ebe4" fill-opacity="1" stroke-opacity="1"/><path d="M991,315L1129,467L1142,303Z" fill="#c8e2c9" stroke="#c8e2c9" fill-opacity="1" stroke-opacity="1"/><path d="M1142,303L1129,467L1222,311Z" fill="#bcd8c3" stroke="#bcd8c3" fill-opacity="1" stroke-opacity="1"/><path d="M1222,311L1129,467L1254,487Z" fill="#b6d2dd" stroke="#b6d2dd" fill-opacity="1" stroke-opacity="1"/><path d="M1222,311L1254,487L1386,351Z" fill="#aac4c3" stroke="#aac4c3" fill-opacity="1" stroke-opacity="1"/><path d="M1386,351L1254,487L1355,474Z" fill="#a4bcd9" stroke="#a4bcd9" fill-opacity="1" stroke-opacity="1"/><path d="M1386,351L1355,474L1465,427Z" fill="#9fafc9" stroke="#9fafc9" fill-opacity="1" stroke-opacity="1"/><path d="M1386,351L1465,427L1500,294Z" fill="#9ca6a8" stroke="#9ca6a8" fill-opacity="1" stroke-opacity="1"/><path d="M1500,294L1465,427L1607,324Z" fill="#98989e" stroke="#98989e" fill-opacity="1" stroke-opacity="1"/><path d="M1607,324L1465,427L1654,469Z" fill="#948fb4" stroke="#948fb4" fill-opacity="1" stroke-opacity="1"/><path d="M1607,324L1654,469L1780,357Z" fill="#8e80a0" stroke="#8e80a0" fill-opacity="1" stroke-opacity="1"/><path d="M1780,357L1654,469L1769,482Z" fill="#8b80b3" stroke="#8b80b3" fill-opacity="1" stroke-opacity="1"/><path d="M1780,357L1769,482L1767,619Z" fill="#7c80b2" stroke="#7c80b2" fill-opacity="1" stroke-opacity="1"/><path d="M1780,357L1767,619L1793,952Z" fill="#465eaa" stroke="#465eaa" fill-opacity="1" stroke-opacity="1"/><path d="M-73,416L-90,810L-54,700Z" fill="#855e8b" stroke="#855e8b" fill-opacity="1" stroke-opacity="1"/><path d="M-73,416L-54,700L-27,604Z" fill="#a17391" stroke="#a17391" fill-opacity="1" stroke-opacity="1"/><path d="M-73,416L-27,604L38,442Z" fill="#c28093" stroke="#c28093" fill-opacity="1" stroke-opacity="1"/><path d="M38,442L-27,604L97,568Z" fill="#bb8292" stroke="#bb8292" fill-opacity="1" stroke-opacity="1"/><path d="M38,442L97,568L170,427Z" fill="#d68e93" stroke="#d68e93" fill-opacity="1" stroke-opacity="1"/><path d="M170,427L97,568L177,566Z" fill="#d19593" stroke="#d19593" fill-opacity="1" stroke-opacity="1"/><path d="M170,427L177,566L359,473Z" fill="#e3a499" stroke="#e3a499" fill-opacity="1" stroke-opacity="1"/><path d="M359,473L177,566L362,609Z" fill="#d6aa9e" stroke="#d6aa9e" fill-opacity="1" stroke-opacity="1"/><path d="M359,473L362,609L455,589Z" fill="#d7baa5" stroke="#d7baa5" fill-opacity="1" stroke-opacity="1"/><path d="M359,473L455,589L422,462Z" fill="#e8c5a8" stroke="#e8c5a8" fill-opacity="1" stroke-opacity="1"/><path d="M422,462L455,589L592,443Z" fill="#edd4af" stroke="#edd4af" fill-opacity="1" stroke-opacity="1"/><path d="M592,443L455,589L575,591Z" fill="#e0d9b5" stroke="#e0d9b5" fill-opacity="1" stroke-opacity="1"/><path d="M592,443L575,591L716,575Z" fill="#e3e7c2" stroke="#e3e7c2" fill-opacity="1" stroke-opacity="1"/><path d="M592,443L716,575L749,481Z" fill="#edf1cc" stroke="#edf1cc" fill-opacity="1" stroke-opacity="1"/><path d="M749,481L716,575L832,607Z" fill="#d3eee4" stroke="#d3eee4" fill-opacity="1" stroke-opacity="1"/><path d="M749,481L832,607L829,435Z" fill="#e0f7f0" stroke="#e0f7f0" fill-opacity="1" stroke-opacity="1"/><path d="M829,435L832,607L943,441Z" fill="#dcf7fb" stroke="#dcf7fb" fill-opacity="1" stroke-opacity="1"/><path d="M943,441L832,607L993,546Z" fill="#c8f2f8" stroke="#c8f2f8" fill-opacity="1" stroke-opacity="1"/><path d="M943,441L993,546L1129,467Z" fill="#c7eaf3" stroke="#c7eaf3" fill-opacity="1" stroke-opacity="1"/><path d="M1129,467L993,546L1141,546Z" fill="#b2e2ef" stroke="#b2e2ef" fill-opacity="1" stroke-opacity="1"/><path d="M1129,467L1141,546L1254,487Z" fill="#a9d6e8" stroke="#a9d6e8" fill-opacity="1" stroke-opacity="1"/><path d="M1254,487L1141,546L1272,617Z" fill="#92c9e4" stroke="#92c9e4" fill-opacity="1" stroke-opacity="1"/><path d="M1254,487L1272,617L1392,553Z" fill="#86badc" stroke="#86badc" fill-opacity="1" stroke-opacity="1"/><path d="M1254,487L1392,553L1355,474Z" fill="#91bcdb" stroke="#91bcdb" fill-opacity="1" stroke-opacity="1"/><path d="M1355,474L1392,553L1465,427Z" fill="#92afd4" stroke="#92afd4" fill-opacity="1" stroke-opacity="1"/><path d="M1465,427L1392,553L1462,567Z" fill="#87a8d1" stroke="#87a8d1" fill-opacity="1" stroke-opacity="1"/><path d="M1465,427L1462,567L1654,469Z" fill="#8a98c9" stroke="#8a98c9" fill-opacity="1" stroke-opacity="1"/><path d="M1654,469L1462,567L1634,598Z" fill="#7589c3" stroke="#7589c3" fill-opacity="1" stroke-opacity="1"/><path d="M1654,469L1634,598L1769,482Z" fill="#7880ba" stroke="#7880ba" fill-opacity="1" stroke-opacity="1"/><path d="M1769,482L1634,598L1767,619Z" fill="#6475b5" stroke="#6475b5" fill-opacity="1" stroke-opacity="1"/><path d="M-27,604L-54,700L98,715Z" fill="#875385" stroke="#875385" fill-opacity="1" stroke-opacity="1"/><path d="M-27,604L98,715L97,568Z" fill="#9d6b8e" stroke="#9d6b8e" fill-opacity="1" stroke-opacity="1"/><path d="M97,568L98,715L164,706Z" fill="#9b6787" stroke="#9b6787" fill-opacity="1" stroke-opacity="1"/><path d="M97,568L164,706L177,566Z" fill="#af7d90" stroke="#af7d90" fill-opacity="1" stroke-opacity="1"/><path d="M177,566L164,706L362,609Z" fill="#b38894" stroke="#b38894" fill-opacity="1" stroke-opacity="1"/><path d="M362,609L164,706L356,747Z" fill="#a67c8d" stroke="#a67c8d" fill-opacity="1" stroke-opacity="1"/><path d="M362,609L356,747L455,703Z" fill="#ab8e96" stroke="#ab8e96" fill-opacity="1" stroke-opacity="1"/><path d="M362,609L455,703L455,589Z" fill="#bda9a3" stroke="#bda9a3" fill-opacity="1" stroke-opacity="1"/><path d="M455,589L455,703L575,591Z" fill="#c0b9aa" stroke="#c0b9aa" fill-opacity="1" stroke-opacity="1"/><path d="M575,591L455,703L593,738Z" fill="#b1ada7" stroke="#b1ada7" fill-opacity="1" stroke-opacity="1"/><path d="M575,591L593,738L705,716Z" fill="#b0b8b2" stroke="#b0b8b2" fill-opacity="1" stroke-opacity="1"/><path d="M575,591L705,716L716,575Z" fill="#c1d2c2" stroke="#c1d2c2" fill-opacity="1" stroke-opacity="1"/><path d="M716,575L705,716L832,607Z" fill="#b8d6da" stroke="#b8d6da" fill-opacity="1" stroke-opacity="1"/><path d="M832,607L705,716L812,755Z" fill="#a2c1d9" stroke="#a2c1d9" fill-opacity="1" stroke-opacity="1"/><path d="M832,607L812,755L981,699Z" fill="#9ac4ea" stroke="#9ac4ea" fill-opacity="1" stroke-opacity="1"/><path d="M832,607L981,699L993,546Z" fill="#a6d9f4" stroke="#a6d9f4" fill-opacity="1" stroke-opacity="1"/><path d="M993,546L981,699L1141,546Z" fill="#9dd5f0" stroke="#9dd5f0" fill-opacity="1" stroke-opacity="1"/><path d="M1141,546L981,699L1118,736Z" fill="#81bae4" stroke="#81bae4" fill-opacity="1" stroke-opacity="1"/><path d="M1141,546L1118,736L1220,683Z" fill="#76b1df" stroke="#76b1df" fill-opacity="1" stroke-opacity="1"/><path d="M1141,546L1220,683L1272,617Z" fill="#7bb8e2" stroke="#7bb8e2" fill-opacity="1" stroke-opacity="1"/><path d="M1272,617L1220,683L1342,679Z" fill="#639dd4" stroke="#639dd4" fill-opacity="1" stroke-opacity="1"/><path d="M1272,617L1342,679L1392,553Z" fill="#69a4d7" stroke="#69a4d7" fill-opacity="1" stroke-opacity="1"/><path d="M1392,553L1342,679L1462,567Z" fill="#6b9cd2" stroke="#6b9cd2" fill-opacity="1" stroke-opacity="1"/><path d="M1462,567L1342,679L1520,686Z" fill="#5986c9" stroke="#5986c9" fill-opacity="1" stroke-opacity="1"/><path d="M1462,567L1520,686L1634,598Z" fill="#5c7dc5" stroke="#5c7dc5" fill-opacity="1" stroke-opacity="1"/><path d="M1634,598L1520,686L1646,678Z" fill="#4d64b8" stroke="#4d64b8" fill-opacity="1" stroke-opacity="1"/><path d="M1634,598L1646,678L1767,619Z" fill="#4f62b5" stroke="#4f62b5" fill-opacity="1" stroke-opacity="1"/><path d="M1767,619L1646,678L1764,678Z" fill="#4458ac" stroke="#4458ac" fill-opacity="1" stroke-opacity="1"/><path d="M1767,619L1764,678L1793,952Z" fill="#2c3395" stroke="#2c3395" fill-opacity="1" stroke-opacity="1"/><path d="M-54,700L-90,810L34,828Z" fill="#6c266f" stroke="#6c266f" fill-opacity="1" stroke-opacity="1"/><path d="M-54,700L34,828L98,715Z" fill="#7a3776" stroke="#7a3776" fill-opacity="1" stroke-opacity="1"/><path d="M98,715L34,828L214,820Z" fill="#82336e" stroke="#82336e" fill-opacity="1" stroke-opacity="1"/><path d="M98,715L214,820L164,706Z" fill="#8e4b77" stroke="#8e4b77" fill-opacity="1" stroke-opacity="1"/><path d="M164,706L214,820L356,747Z" fill="#94567b" stroke="#94567b" fill-opacity="1" stroke-opacity="1"/><path d="M356,747L214,820L345,879Z" fill="#924874" stroke="#924874" fill-opacity="1" stroke-opacity="1"/><path d="M356,747L345,879L436,885Z" fill="#924d76" stroke="#924d76" fill-opacity="1" stroke-opacity="1"/><path d="M356,747L436,885L455,703Z" fill="#9b6d85" stroke="#9b6d85" fill-opacity="1" stroke-opacity="1"/><path d="M455,703L436,885L593,738Z" fill="#9e7d8d" stroke="#9e7d8d" fill-opacity="1" stroke-opacity="1"/><path d="M593,738L436,885L619,807Z" fill="#9a778d" stroke="#9a778d" fill-opacity="1" stroke-opacity="1"/><path d="M593,738L619,807L705,716Z" fill="#a29ca5" stroke="#a29ca5" fill-opacity="1" stroke-opacity="1"/><path d="M705,716L619,807L718,883Z" fill="#9a8da2" stroke="#9a8da2" fill-opacity="1" stroke-opacity="1"/><path d="M705,716L718,883L812,755Z" fill="#9798ba" stroke="#9798ba" fill-opacity="1" stroke-opacity="1"/><path d="M812,755L718,883L881,867Z" fill="#8b86c2" stroke="#8b86c2" fill-opacity="1" stroke-opacity="1"/><path d="M812,755L881,867L981,699Z" fill="#889ed7" stroke="#889ed7" fill-opacity="1" stroke-opacity="1"/><path d="M981,699L881,867L998,829Z" fill="#7b8fcf" stroke="#7b8fcf" fill-opacity="1" stroke-opacity="1"/><path d="M981,699L998,829L1079,813Z" fill="#7391d0" stroke="#7391d0" fill-opacity="1" stroke-opacity="1"/><path d="M981,699L1079,813L1118,736Z" fill="#7099d4" stroke="#7099d4" fill-opacity="1" stroke-opacity="1"/><path d="M1118,736L1079,813L1211,827Z" fill="#5e7dc5" stroke="#5e7dc5" fill-opacity="1" stroke-opacity="1"/><path d="M1118,736L1211,827L1220,683Z" fill="#5c89cb" stroke="#5c89cb" fill-opacity="1" stroke-opacity="1"/><path d="M1220,683L1211,827L1347,833Z" fill="#4d6ebd" stroke="#4d6ebd" fill-opacity="1" stroke-opacity="1"/><path d="M1220,683L1347,833L1342,679Z" fill="#4e7cc4" stroke="#4e7cc4" fill-opacity="1" stroke-opacity="1"/><path d="M1342,679L1347,833L1520,686Z" fill="#456abb" stroke="#456abb" fill-opacity="1" stroke-opacity="1"/><path d="M1520,686L1347,833L1533,824Z" fill="#3a49aa" stroke="#3a49aa" fill-opacity="1" stroke-opacity="1"/><path d="M1520,686L1533,824L1646,678Z" fill="#3c4dac" stroke="#3c4dac" fill-opacity="1" stroke-opacity="1"/><path d="M1646,678L1533,824L1617,880Z" fill="#312b9c" stroke="#312b9c" fill-opacity="1" stroke-opacity="1"/><path d="M1646,678L1617,880L1740,863Z" fill="#2a1b92" stroke="#2a1b92" fill-opacity="1" stroke-opacity="1"/><path d="M1646,678L1740,863L1764,678Z" fill="#31379c" stroke="#31379c" fill-opacity="1" stroke-opacity="1"/><path d="M1764,678L1740,863L1793,952Z" fill="#221084" stroke="#221084" fill-opacity="1" stroke-opacity="1"/><path d="M-90,810L-75,1013L34,828Z" fill="#5d0059" stroke="#5d0059" fill-opacity="1" stroke-opacity="1"/><path d="M34,828L-75,1013L100,966Z" fill="#5f034e" stroke="#5f034e" fill-opacity="1" stroke-opacity="1"/><path d="M34,828L100,966L214,820Z" fill="#77115c" stroke="#77115c" fill-opacity="1" stroke-opacity="1"/><path d="M214,820L100,966L228,999Z" fill="#771b52" stroke="#771b52" fill-opacity="1" stroke-opacity="1"/><path d="M214,820L228,999L345,879Z" fill="#82295f" stroke="#82295f" fill-opacity="1" stroke-opacity="1"/><path d="M345,879L228,999L335,962Z" fill="#7f3158" stroke="#7f3158" fill-opacity="1" stroke-opacity="1"/><path d="M345,879L335,962L448,936Z" fill="#863e63" stroke="#863e63" fill-opacity="1" stroke-opacity="1"/><path d="M345,879L448,936L436,885Z" fill="#8b456b" stroke="#8b456b" fill-opacity="1" stroke-opacity="1"/><path d="M436,885L448,936L574,958Z" fill="#89546c" stroke="#89546c" fill-opacity="1" stroke-opacity="1"/><path d="M436,885L574,958L619,807Z" fill="#905d7c" stroke="#905d7c" fill-opacity="1" stroke-opacity="1"/><path d="M619,807L574,958L718,883Z" fill="#906b8a" stroke="#906b8a" fill-opacity="1" stroke-opacity="1"/><path d="M718,883L574,958L731,976Z" fill="#887083" stroke="#887083" fill-opacity="1" stroke-opacity="1"/><path d="M718,883L731,976L810,1003Z" fill="#7f7599" stroke="#7f7599" fill-opacity="1" stroke-opacity="1"/><path d="M718,883L810,1003L881,867Z" fill="#8078b0" stroke="#8078b0" fill-opacity="1" stroke-opacity="1"/><path d="M881,867L810,1003L1003,952Z" fill="#7075b4" stroke="#7075b4" fill-opacity="1" stroke-opacity="1"/><path d="M881,867L1003,952L998,829Z" fill="#6e70bd" stroke="#6e70bd" fill-opacity="1" stroke-opacity="1"/><path d="M998,829L1003,952L1079,813Z" fill="#666cbd" stroke="#666cbd" fill-opacity="1" stroke-opacity="1"/><path d="M1079,813L1003,952L1134,989Z" fill="#5764af" stroke="#5764af" fill-opacity="1" stroke-opacity="1"/><path d="M1079,813L1134,989L1211,827Z" fill="#525bb3" stroke="#525bb3" fill-opacity="1" stroke-opacity="1"/><path d="M1211,827L1134,989L1255,971Z" fill="#4153a3" stroke="#4153a3" fill-opacity="1" stroke-opacity="1"/><path d="M1211,827L1255,971L1347,833Z" fill="#3e47a8" stroke="#3e47a8" fill-opacity="1" stroke-opacity="1"/><path d="M1347,833L1255,971L1344,984Z" fill="#314099" stroke="#314099" fill-opacity="1" stroke-opacity="1"/><path d="M1347,833L1344,984L1502,937Z" fill="#2c3194" stroke="#2c3194" fill-opacity="1" stroke-opacity="1"/><path d="M1347,833L1502,937L1533,824Z" fill="#2f2799" stroke="#2f2799" fill-opacity="1" stroke-opacity="1"/><path d="M1533,824L1502,937L1617,880Z" fill="#27148e" stroke="#27148e" fill-opacity="1" stroke-opacity="1"/><path d="M1617,880L1502,937L1640,1010Z" fill="#1d0d7e" stroke="#1d0d7e" fill-opacity="1" stroke-opacity="1"/><path d="M1617,880L1640,1010L1740,863Z" fill="#1c007c" stroke="#1c007c" fill-opacity="1" stroke-opacity="1"/><path d="M1740,863L1640,1010L1793,952Z" fill="#150071" stroke="#150071" fill-opacity="1" stroke-opacity="1"/><path d="M-75,1013L1640,1010L810,1003Z" fill="#757799" stroke="#757799" fill-opacity="1" stroke-opacity="1"/><path d="M-75,1013L810,1003L228,999Z" fill="#79344d" stroke="#79344d" fill-opacity="1" stroke-opacity="1"/><path d="M-75,1013L228,999L100,966Z" fill="#610c43" stroke="#610c43" fill-opacity="1" stroke-opacity="1"/><path d="M228,999L810,1003L574,958Z" fill="#825c66" stroke="#825c66" fill-opacity="1" stroke-opacity="1"/><path d="M228,999L574,958L335,962Z" fill="#803f59" stroke="#803f59" fill-opacity="1" stroke-opacity="1"/><path d="M335,962L574,958L448,936Z" fill="#854d64" stroke="#854d64" fill-opacity="1" stroke-opacity="1"/><path d="M574,958L810,1003L731,976Z" fill="#807284" stroke="#807284" fill-opacity="1" stroke-opacity="1"/><path d="M810,1003L1640,1010L1134,989Z" fill="#395495" stroke="#395495" fill-opacity="1" stroke-opacity="1"/><path d="M810,1003L1134,989L1003,952Z" fill="#5d6fa7" stroke="#5d6fa7" fill-opacity="1" stroke-opacity="1"/><path d="M1134,989L1640,1010L1344,984Z" fill="#233587" stroke="#233587" fill-opacity="1" stroke-opacity="1"/><path d="M1134,989L1344,984L1255,971Z" fill="#344b94" stroke="#344b94" fill-opacity="1" stroke-opacity="1"/><path d="M1344,984L1640,1010L1502,937Z" fill="#1e1e7f" stroke="#1e1e7f" fill-opacity="1" stroke-opacity="1"/></g></svg>